<svg width="588" height="582" viewBox="0 0 588 582" fill="none" xmlns="http://www.w3.org/2000/svg">
<path d="M18.3535 0.683716C28.2132 0.683716 36.207 8.60511 36.207 18.3546V545.815H568.96C578.82 545.815 586.813 553.737 586.813 563.486C586.813 573.236 578.819 581.157 568.96 581.157H36.707C16.7345 581.157 0.5 565.076 0.5 545.315V18.3546C0.500078 8.60511 8.49384 0.683726 18.3535 0.683716Z" fill="white" stroke="white"/>
<path d="M107.39 460.403C99.7793 463.674 96.261 472.495 99.5321 480.107C102.803 487.718 111.625 491.236 119.236 487.965L113.313 474.184L107.39 460.403ZM485.443 77.9306C481.437 70.6792 472.312 68.0481 465.06 72.0539L346.892 137.332C339.64 141.338 337.009 150.463 341.015 157.715C345.021 164.966 354.146 167.597 361.398 163.591L466.436 105.567L524.461 210.605C528.467 217.857 537.593 220.488 544.844 216.482C552.096 212.476 554.727 203.351 550.721 196.099L485.443 77.9306ZM113.313 474.184L119.236 487.965C223.634 443.097 299.615 400.494 357.51 339.983C415.578 279.29 454.296 201.821 486.726 89.3392L472.313 85.1837L457.9 81.0282C426.2 190.979 389.294 263.366 335.833 319.243C282.198 375.302 210.744 415.983 107.39 460.403L113.313 474.184Z" fill="white"/>
<path d="M509.313 254.184L512.313 504.578" stroke="white" stroke-width="33.3333" stroke-linecap="round"/>
<path d="M389.313 382.184V504.184" stroke="white" stroke-width="33.3333" stroke-linecap="round"/>
<path d="M266.313 474.184L266.313 508.184" stroke="white" stroke-width="33.3333" stroke-linecap="round"/>
<path d="M215.037 157.881C231.712 140.261 260.829 128.201 287.323 122.216C260.824 116.222 231.7 104.175 215.026 86.5486C198.363 68.9289 186.954 38.14 181.281 10.1401C175.619 38.1514 164.217 68.9346 147.542 86.5543C130.873 104.174 101.749 116.234 75.2559 122.228C101.755 128.213 130.879 140.269 147.553 157.886C164.221 175.506 175.625 206.295 181.298 234.295C186.96 206.29 198.368 175.507 215.037 157.881Z" fill="white" stroke="white" stroke-width="1.5625"/>
<path d="M295.262 234.185C284.744 224.23 277.528 206.826 273.952 191C270.371 206.826 263.178 224.23 252.649 234.19C242.121 244.14 223.726 250.961 207 254.349C223.732 257.737 242.121 264.547 252.649 274.507C263.178 284.462 270.383 301.866 273.965 317.692C277.539 301.86 284.744 284.462 295.267 274.502C305.79 264.547 324.187 257.731 340.911 254.338C324.188 250.955 305.791 244.14 295.262 234.185Z" fill="white" stroke="white" stroke-width="1.5625"/>
<path d="M150.519 273.184C147.512 286.47 141.473 301.086 132.635 309.446C123.799 317.799 108.355 323.524 94.3131 326.369C108.355 329.22 123.799 334.927 132.635 343.292C141.473 351.651 147.524 366.256 150.531 379.549C153.535 366.256 159.577 351.652 168.417 343.287C177.248 334.927 192.694 329.208 206.734 326.358C192.695 323.518 177.248 317.8 168.411 309.44C159.577 301.086 153.523 286.47 150.519 273.184Z" fill="white" stroke="white" stroke-width="1.5625"/>
</svg>
